<?xml version="1.0" ?><svg data-name="Layer 2" id="Layer_2" viewBox="0 0 2050 2050" xmlns="http://www.w3.org/2000/svg"><defs><style>.cls-1{fill:#67baeb;}.cls-2{fill:#4d4c78;}.cls-3{fill:#46a1f8;}.cls-4{fill:#323150;}.cls-5{fill:#64639c;}.cls-6{fill:#de3226;}.cls-7{fill:#b11a31;}.cls-8{fill:#84b320;}.cls-9{fill:#f4c23f;}.cls-10{fill:#4b7d27;}.cls-11{fill:#f4a93f;}</style></defs><title/><rect class="cls-1" height="1210.74" rx="65.8" ry="65.8" width="1531.3" x="259.3" y="290.9"/><path class="cls-2" d="M259.3,1261.3v174.5a65.8,65.8,0,0,0,65.8,65.8H1724.9a65.8,65.8,0,0,0,65.8-65.8V1261.3Z"/><path class="cls-2" d="M259.3,1261.3v174.5a65.8,65.8,0,0,0,65.8,65.8H1724.9a65.8,65.8,0,0,0,65.8-65.8V1261.3Z"/><path class="cls-3" d="M397,1449a65.9,65.9,0,0,1-65.9-65.9V304a70.1,70.1,0,0,1,1.3-13.1h-7.3a65.9,65.9,0,0,0-65.8,65.8V1435.8a65.8,65.8,0,0,0,65.8,65.8H1724.9a65.9,65.9,0,0,0,64.5-52.6Z"/><path class="cls-4" d="M397,1449a65.9,65.9,0,0,1-65.9-65.9V1261.3H259.3v174.5a65.8,65.8,0,0,0,65.8,65.8H1724.9a65.9,65.9,0,0,0,64.5-52.6Z"/><circle class="cls-4" cx="1025" cy="1384.4" r="47.8"/><polygon class="cls-2" points="1263.1 1728.8 786.9 1728.8 881.4 1501.6 1168.6 1501.6 1263.1 1728.8"/><path class="cls-4" d="M1071.4,1564.9H1195l-26.4-63.3H881.4l-94.5,227.2H938.5l43.3-104.1A97,97,0,0,1,1071.4,1564.9Z"/><path class="cls-4" d="M732.4,1728.8h585.2a77.2,77.2,0,0,1,77.2,77.2v0a0,0,0,0,1,0,0H655.2a0,0,0,0,1,0,0v0A77.2,77.2,0,0,1,732.4,1728.8Z"/><rect class="cls-5" height="75.2" rx="37.6" ry="37.6" width="411.9" x="1263.1" y="1261.3"/><rect class="cls-5" height="122.46" rx="29.8" ry="29.8" transform="translate(-529.8 566.4) rotate(-21.9)" width="59.7" x="1168.3" y="1590.6"/><path class="cls-6" d="M1024.5,846.3a69.5,69.5,0,1,1,69.5-69.5A69.5,69.5,0,0,1,1024.5,846.3Z"/><path class="cls-4" d="M861.7,1151.7a68.4,68.4,0,0,1-34.4-8.7c-19.9-11.2-32.9-32.4-38.7-62.8-5.3-27.9-4.4-62.6,2.6-103.3,14.2-82.5,52.2-181.1,106.9-277.6s119.8-179.9,183.2-234.4c31.4-26.9,60.7-45.5,87.3-55.3,29.1-10.6,54-10.3,73.8.9s32.9,32.4,38.7,62.9c5.3,27.8,4.4,62.5-2.6,103.2-14.2,82.5-52.1,181.1-106.9,277.7s-119.8,179.8-183.2,234.4c-31.3,26.9-60.7,45.5-87.3,55.2C886.9,1149.1,873.8,1151.7,861.7,1151.7Zm346.2-731.3c-9.8,0-20.8,2.2-32.9,6.6-24.5,9-52,26.5-81.6,51.9s-60.6,58.5-90.8,97A1098,1098,0,0,0,845.9,852.3C828.4,898.1,816.2,941,809.4,980s-7.5,71.1-2.6,96.7,14.7,41.8,29.6,50.2,34.5,8.3,58.3-.4,52-26.4,81.6-51.9,60.6-58.4,90.9-96.9a1067.9,1067.9,0,0,0,88.3-132.6c27.2-47.9,50.2-96.3,68.3-143.9,17.5-45.7,29.8-88.7,36.5-127.7s7.5-71,2.6-96.6-14.7-41.8-29.6-50.3A51.4,51.4,0,0,0,1207.9,420.4Z"/><path class="cls-4" d="M861.7,1151.7a68.4,68.4,0,0,1-34.4-8.7c-19.9-11.2-32.9-32.4-38.7-62.8-5.3-27.9-4.4-62.6,2.6-103.3,14.2-82.5,52.2-181.1,106.9-277.6s119.8-179.9,183.2-234.4c31.4-26.9,60.7-45.5,87.3-55.3,29.1-10.6,54-10.3,73.8.9s32.9,32.4,38.7,62.9c5.3,27.8,4.4,62.5-2.6,103.2-14.2,82.5-52.1,181.1-106.9,277.7s-119.8,179.8-183.2,234.4c-31.3,26.9-60.7,45.5-87.3,55.2C886.9,1149.1,873.8,1151.7,861.7,1151.7Zm346.2-731.3c-9.8,0-20.8,2.2-32.9,6.6-24.5,9-52,26.5-81.6,51.9s-60.6,58.5-90.8,97A1098,1098,0,0,0,845.9,852.3C828.4,898.1,816.2,941,809.4,980s-7.5,71.1-2.6,96.7,14.7,41.8,29.6,50.2,34.5,8.3,58.3-.4,52-26.4,81.6-51.9,60.6-58.4,90.9-96.9a1067.9,1067.9,0,0,0,88.3-132.6c27.2-47.9,50.2-96.3,68.3-143.9,17.5-45.7,29.8-88.7,36.5-127.7s7.5-71,2.6-96.6-14.7-41.8-29.6-50.3A51.4,51.4,0,0,0,1207.9,420.4Z"/><path class="cls-4" d="M1212.6,1148.9q-17.5,0-38.1-7.2c-26.8-9.3-56.4-27.4-88.2-53.8-64.3-53.6-130.7-135.7-187-231.4S803.5,662.8,788,580.6c-7.7-40.6-9.1-75.3-4.2-103.2,5.3-30.6,18-51.9,37.7-63.5s44.4-12.3,73.7-2.1c26.8,9.3,56.4,27.5,88.2,53.9,64.3,53.5,130.7,135.7,187,231.4s95.8,193.7,111.3,275.9c7.7,40.6,9.1,75.3,4.2,103.2-5.3,30.5-18,51.9-37.6,63.5C1237.8,1145.8,1225.9,1148.9,1212.6,1148.9ZM857.2,423.2c-10,0-18.8,2.2-26.4,6.7-14.7,8.6-24.4,25.7-28.8,50.6s-3,58.2,4.2,96.6,20.3,81.7,38.5,127.2c18.9,47.2,42.7,95.3,70.6,142.8s58.4,91.6,90.5,131.1,62,70.1,92.4,95.4,57.7,42,82.4,50.6,43.5,8.2,58.3-.5,24.4-25.8,28.8-50.7,3.1-58.2-4.2-96.6-20.3-81.7-38.5-127.1c-18.9-47.3-42.7-95.3-70.6-142.8a1058.3,1058.3,0,0,0-90.5-131.1c-30.9-38.1-62-70.2-92.4-95.5s-57.7-42-82.4-50.6C877.4,425.2,866.8,423.2,857.2,423.2Z"/><path class="cls-4" d="M1026.6,934c-107.4,0-208.4-14.7-285.1-41.6-39-13.6-69.7-29.7-91.5-47.9-23.8-19.9-35.9-41.5-36.1-64.4s11.6-44.6,35.1-64.9c21.4-18.5,51.9-35.1,90.7-49.4,78.5-28.9,182.9-45.3,293.9-46.2s215.6,13.8,294.6,41.5c39,13.6,69.7,29.8,91.5,47.9,23.8,19.9,35.9,41.6,36.1,64.4s-11.6,44.7-35.1,64.9c-21.4,18.5-51.9,35.2-90.7,49.4-78.5,29-182.9,45.4-293.9,46.3Zm7.1-305.2v9.3A1048.3,1048.3,0,0,0,875,650.9c-48.4,7.7-91.8,18.6-128.9,32.3s-65.3,29-85,46-28.8,33.7-28.7,50.8,10.1,34,29.5,50.3,48.9,31.8,85.7,44.7,80.9,23.2,129.4,30.2a1060.8,1060.8,0,0,0,159,10.2,1061.6,1061.6,0,0,0,158.7-12.7c48.4-7.8,91.8-18.7,128.9-32.3s65.3-29,85-46.1,28.8-33.6,28.7-50.8-10.1-34-29.5-50.2-48.9-31.8-85.7-44.7-80.9-23.3-129.4-30.3c-50.4-7.2-103.8-10.6-159-10.2Z"/><path class="cls-7" d="M1024.5,741.4a35.4,35.4,0,1,0,35.4,35.4A35.4,35.4,0,0,0,1024.5,741.4Z"/><circle class="cls-8" cx="1239.4" cy="415.8" r="38.7"/><circle class="cls-9" cx="1242.4" cy="1129.7" r="38.7"/><circle class="cls-6" cx="632.9" cy="770.2" r="38.7"/><path class="cls-10" d="M1250.8,443.1a38.7,38.7,0,0,1-38.7-38.7,37.9,37.9,0,0,1,6.3-21,38.7,38.7,0,1,0,53.5,53.5A39,39,0,0,1,1250.8,443.1Z"/><path class="cls-11" d="M1253.8,1156.9a38.7,38.7,0,0,1-32.5-59.7,38.7,38.7,0,1,0,53.5,53.5A38.4,38.4,0,0,1,1253.8,1156.9Z"/><path class="cls-7" d="M644.3,797.5a38.7,38.7,0,0,1-32.5-59.7,38.7,38.7,0,1,0,53.5,53.5A38.6,38.6,0,0,1,644.3,797.5Z"/></svg>