<?xml version="1.0" ?><svg id="Layer_3" style="enable-background:new 0 0 64 64;" version="1.1" viewBox="0 0 64 64" xml:space="preserve" xmlns="http://www.w3.org/2000/svg" xmlns:xlink="http://www.w3.org/1999/xlink"><g><g><rect height="12" style="fill:#155671;" width="6" x="56" y="44"/></g><g><rect height="12" style="fill:#1F80AA;" width="4" x="56" y="44"/></g><g><polyline points="57,57 57,62 61,62 61,57   " style="fill:#0A558B;"/></g><g><rect height="6" style="fill:#0D71BA;" width="2" x="57" y="56"/></g><g><polygon points="61,11 59,6 57,11   " style="fill:#666666;"/></g><g><polygon points="57,11 60,11 58.5,7.25   " style="fill:#808080;"/></g><g><rect height="32" style="fill:#0A558B;" width="4" x="57" y="12"/></g><g><rect height="33" style="fill:#0D71BA;" width="2" x="57" y="11"/></g><g><rect height="44" style="fill:#B96E16;" width="6" x="46" y="18"/></g><g><rect height="44" style="fill:#F7931E;" width="3" x="46" y="18"/></g><g><rect height="6" style="fill:#1A1A1A;" width="6" x="46" y="56"/></g><g><rect height="6" style="fill:#333333;" width="4" x="46" y="56"/></g><g><polygon points="52,18 49,8 46,18   " style="fill:#F9A94B;"/></g><g><polygon points="46,18 50,18 48,11.333   " style="fill:#FABE78;"/></g><g><rect height="60" style="fill:#66AAD7;" width="38" x="2" y="2"/></g><g><rect height="60" style="fill:#99C6E4;" width="34" x="2" y="2"/></g><g><rect height="4" style="fill:#8C6239;" width="4" x="8" y="14"/></g><g><rect height="4" style="fill:#A67C52;" width="2" x="8" y="14"/></g><g><path d="M40,63H2c-0.552,0-1-0.448-1-1V2c0-0.552,0.448-1,1-1h38c0.552,0,1,0.448,1,1v60C41,62.552,40.552,63,40,63z M3,61h36V3H3    V61z"/></g><g><path d="M12,19H8c-0.552,0-1-0.448-1-1v-4c0-0.552,0.448-1,1-1h4c0.552,0,1,0.448,1,1v4C13,18.552,12.552,19,12,19z M9,17h2v-2H9    V17z"/></g><g><rect height="4" style="fill:#8C6239;" width="4" x="8" y="22"/></g><g><rect height="4" style="fill:#A67C52;" width="2" x="8" y="22"/></g><g><rect height="4" style="fill:#8C6239;" width="4" x="8" y="30"/></g><g><rect height="4" style="fill:#A67C52;" width="2" x="8" y="30"/></g><g><rect height="4" style="fill:#8C6239;" width="4" x="8" y="38"/></g><g><rect height="4" style="fill:#A67C52;" width="2" x="8" y="38"/></g><g><rect height="4" style="fill:#8C6239;" width="4" x="8" y="46"/></g><g><rect height="4" style="fill:#A67C52;" width="2" x="8" y="46"/></g><g><path d="M12,27H8c-0.552,0-1-0.448-1-1v-4c0-0.552,0.448-1,1-1h4c0.552,0,1,0.448,1,1v4C13,26.552,12.552,27,12,27z M9,25h2v-2H9    V25z"/></g><g><path d="M12,35H8c-0.552,0-1-0.448-1-1v-4c0-0.552,0.448-1,1-1h4c0.552,0,1,0.448,1,1v4C13,34.552,12.552,35,12,35z M9,33h2v-2H9    V33z"/></g><g><path d="M12,43H8c-0.552,0-1-0.448-1-1v-4c0-0.552,0.448-1,1-1h4c0.552,0,1,0.448,1,1v4C13,42.552,12.552,43,12,43z M9,41h2v-2H9    V41z"/></g><g><path d="M12,51H8c-0.552,0-1-0.448-1-1v-4c0-0.552,0.448-1,1-1h4c0.552,0,1,0.448,1,1v4C13,50.552,12.552,51,12,51z M9,49h2v-2H9    V49z"/></g><g><rect height="2" width="20" x="11" y="5"/></g><g><rect height="2" width="11" x="15" y="9"/></g><g><rect height="2" width="18" x="17" y="15"/></g><g><rect height="2" width="18" x="17" y="23"/></g><g><rect height="2" width="18" x="17" y="31"/></g><g><rect height="2" width="18" x="17" y="39"/></g><g><rect height="2" width="18" x="17" y="47"/></g><g><path d="M52,63h-6c-0.552,0-1-0.448-1-1V18c0-0.097,0.014-0.194,0.042-0.287l3-10C48.169,7.29,48.559,7,49,7    s0.831,0.29,0.958,0.713l3,10C52.986,17.806,53,17.903,53,18v44C53,62.552,52.552,63,52,63z M47,61h4V18.147l-2-6.667l-2,6.667V61    z"/></g><g><path d="M61,63h-4c-0.552,0-1-0.448-1-1v-6h2v5h2v-5h2v6C62,62.552,61.552,63,61,63z"/></g><g><path d="M62,57h-6c-0.552,0-1-0.448-1-1V44c0-0.552,0.448-1,1-1h6c0.552,0,1,0.448,1,1v12C63,56.552,62.552,57,62,57z M57,55h4V45    h-4V55z"/></g><g><path d="M62,44h-2V11.192l-1-2.5l-1,2.5V44h-2V11c0-0.127,0.024-0.253,0.071-0.372l2-5C58.224,5.249,58.591,5,59,5    s0.776,0.249,0.929,0.628l2,5C61.976,10.747,62,10.873,62,11V44z"/></g><g><rect height="2" width="4" x="57" y="11"/></g><g><rect height="2" width="6" x="46" y="17"/></g><g><rect height="2" width="6" x="46" y="55"/></g></g></svg>